<svg id="svg-root" viewBox="0 0 820 350" xmlns="http://www.w3.org/2000/svg">
    <style>
        .key-cap { fill: #2d2d2d; stroke: #1a1a1a; stroke-width: 1; }
        .key-text { fill: #999; font-size: 12px; font-weight: 600; font-family: sans-serif; pointer-events: none; }
        .active .key-cap { fill: #3b82f6; }
        .active .key-text { fill: white; }
        .shift-label { display: none; fill: #666; font-size: 10px; }
        .shift-active .shift-label { display: block; }
        .shift-active .key-text { fill: #fff; }
    </style>
    
    <rect x="0" y="0" width="820" height="350" rx="12" fill="#111" />

    <!-- Function Row -->
    <g id="key-Escape" transform="translate(10, 10)"><rect class="key-cap" width="50" height="40" rx="6"/><text class="key-text" x="25" y="25" text-anchor="middle" font-size="10">Esc</text></g>
    <g id="key-F1" transform="translate(118, 10)"><rect class="key-cap" width="50" height="40" rx="6"/><text class="key-text" x="25" y="25" text-anchor="middle" font-size="10">F1</text></g>
    <g id="key-F2" transform="translate(172, 10)"><rect class="key-cap" width="50" height="40" rx="6"/><text class="key-text" x="25" y="25" text-anchor="middle" font-size="10">F2</text></g>
    <g id="key-F3" transform="translate(226, 10)"><rect class="key-cap" width="50" height="40" rx="6"/><text class="key-text" x="25" y="25" text-anchor="middle" font-size="10">F3</text></g>
    <g id="key-F4" transform="translate(280, 10)"><rect class="key-cap" width="50" height="40" rx="6"/><text class="key-text" x="25" y="25" text-anchor="middle" font-size="10">F4</text></g>
    <g id="key-F5" transform="translate(359, 10)"><rect class="key-cap" width="50" height="40" rx="6"/><text class="key-text" x="25" y="25" text-anchor="middle" font-size="10">F5</text></g>
    <g id="key-F6" transform="translate(413, 10)"><rect class="key-cap" width="50" height="40" rx="6"/><text class="key-text" x="25" y="25" text-anchor="middle" font-size="10">F6</text></g>
    <g id="key-F7" transform="translate(467, 10)"><rect class="key-cap" width="50" height="40" rx="6"/><text class="key-text" x="25" y="25" text-anchor="middle" font-size="10">F7</text></g>
    <g id="key-F8" transform="translate(521, 10)"><rect class="key-cap" width="50" height="40" rx="6"/><text class="key-text" x="25" y="25" text-anchor="middle" font-size="10">F8</text></g>
    <g id="key-F9" transform="translate(604, 10)"><rect class="key-cap" width="50" height="40" rx="6"/><text class="key-text" x="25" y="25" text-anchor="middle" font-size="10">F9</text></g>
    <g id="key-F10" transform="translate(658, 10)"><rect class="key-cap" width="50" height="40" rx="6"/><text class="key-text" x="25" y="25" text-anchor="middle" font-size="10">F10</text></g>
    <g id="key-F11" transform="translate(712, 10)"><rect class="key-cap" width="50" height="40" rx="6"/><text class="key-text" x="25" y="25" text-anchor="middle" font-size="10">F11</text></g>
    <g id="key-F12" transform="translate(766, 10)"><rect class="key-cap" width="44" height="40" rx="6"/><text class="key-text" x="22" y="25" text-anchor="middle" font-size="10">F12</text></g>

    <!-- Row 1 (Shifted down) -->
    <g id="key-grave" transform="translate(10, 60)"><rect class="key-cap" width="50" height="50" rx="6"/><text class="key-text" x="25" y="35" text-anchor="middle">`</text><text class="shift-label" x="25" y="20" text-anchor="middle">~</text></g>
    <g id="key-1" transform="translate(64, 60)"><rect class="key-cap" width="50" height="50" rx="6"/><text class="key-text" x="25" y="35" text-anchor="middle">1</text><text class="shift-label" x="25" y="20" text-anchor="middle">!</text></g>
    <g id="key-2" transform="translate(118, 60)"><rect class="key-cap" width="50" height="50" rx="6"/><text class="key-text" x="25" y="35" text-anchor="middle">2</text><text class="shift-label" x="25" y="20" text-anchor="middle">@</text></g>
    <g id="key-3" transform="translate(172, 60)"><rect class="key-cap" width="50" height="50" rx="6"/><text class="key-text" x="25" y="35" text-anchor="middle">3</text><text class="shift-label" x="25" y="20" text-anchor="middle">#</text></g>
    <g id="key-4" transform="translate(226, 60)"><rect class="key-cap" width="50" height="50" rx="6"/><text class="key-text" x="25" y="35" text-anchor="middle">4</text><text class="shift-label" x="25" y="20" text-anchor="middle">$</text></g>
    <g id="key-5" transform="translate(280, 60)"><rect class="key-cap" width="50" height="50" rx="6"/><text class="key-text" x="25" y="35" text-anchor="middle">5</text><text class="shift-label" x="25" y="20" text-anchor="middle">%</text></g>
    <g id="key-6" transform="translate(334, 60)"><rect class="key-cap" width="50" height="50" rx="6"/><text class="key-text" x="25" y="35" text-anchor="middle">6</text><text class="shift-label" x="25" y="20" text-anchor="middle">^</text></g>
    <g id="key-7" transform="translate(388, 60)"><rect class="key-cap" width="50" height="50" rx="6"/><text class="key-text" x="25" y="35" text-anchor="middle">7</text><text class="shift-label" x="25" y="20" text-anchor="middle">&amp;</text></g>
    <g id="key-8" transform="translate(442, 60)"><rect class="key-cap" width="50" height="50" rx="6"/><text class="key-text" x="25" y="35" text-anchor="middle">8</text><text class="shift-label" x="25" y="20" text-anchor="middle">*</text></g>
    <g id="key-9" transform="translate(496, 60)"><rect class="key-cap" width="50" height="50" rx="6"/><text class="key-text" x="25" y="35" text-anchor="middle">9</text><text class="shift-label" x="25" y="20" text-anchor="middle">(</text></g>
    <g id="key-0" transform="translate(550, 60)"><rect class="key-cap" width="50" height="50" rx="6"/><text class="key-text" x="25" y="35" text-anchor="middle">0</text><text class="shift-label" x="25" y="20" text-anchor="middle">)</text></g>
    <g id="key-minus" transform="translate(604, 60)"><rect class="key-cap" width="50" height="50" rx="6"/><text class="key-text" x="25" y="35" text-anchor="middle">-</text><text class="shift-label" x="25" y="20" text-anchor="middle">_</text></g>
    <g id="key-equal" transform="translate(658, 60)"><rect class="key-cap" width="50" height="50" rx="6"/><text class="key-text" x="25" y="35" text-anchor="middle">=</text><text class="shift-label" x="25" y="20" text-anchor="middle">+</text></g>
    <g id="key-BackSpace" transform="translate(712, 60)"><rect class="key-cap" width="98" height="50" rx="6"/><text class="key-text" x="49" y="30" text-anchor="middle">Back</text></g>

    <!-- Row 2 -->
    <g id="key-Tab" transform="translate(10, 114)"><rect class="key-cap" width="75" height="50" rx="6"/><text class="key-text" x="37" y="30" text-anchor="middle">Tab</text></g>
    <g id="key-q" transform="translate(89, 114)"><rect class="key-cap" width="50" height="50" rx="6"/><text class="key-text" x="25" y="30" text-anchor="middle">Q</text></g>
    <g id="key-w" transform="translate(143, 114)"><rect class="key-cap" width="50" height="50" rx="6"/><text class="key-text" x="25" y="30" text-anchor="middle">W</text></g>
    <g id="key-e" transform="translate(197, 114)"><rect class="key-cap" width="50" height="50" rx="6"/><text class="key-text" x="25" y="30" text-anchor="middle">E</text></g>
    <g id="key-r" transform="translate(251, 114)"><rect class="key-cap" width="50" height="50" rx="6"/><text class="key-text" x="25" y="30" text-anchor="middle">R</text></g>
    <g id="key-t" transform="translate(305, 114)"><rect class="key-cap" width="50" height="50" rx="6"/><text class="key-text" x="25" y="30" text-anchor="middle">T</text></g>
    <g id="key-y" transform="translate(359, 114)"><rect class="key-cap" width="50" height="50" rx="6"/><text class="key-text" x="25" y="30" text-anchor="middle">Y</text></g>
    <g id="key-u" transform="translate(413, 114)"><rect class="key-cap" width="50" height="50" rx="6"/><text class="key-text" x="25" y="30" text-anchor="middle">U</text></g>
    <g id="key-i" transform="translate(467, 114)"><rect class="key-cap" width="50" height="50" rx="6"/><text class="key-text" x="25" y="30" text-anchor="middle">I</text></g>
    <g id="key-o" transform="translate(521, 114)"><rect class="key-cap" width="50" height="50" rx="6"/><text class="key-text" x="25" y="30" text-anchor="middle">O</text></g>
    <g id="key-p" transform="translate(575, 114)"><rect class="key-cap" width="50" height="50" rx="6"/><text class="key-text" x="25" y="30" text-anchor="middle">P</text></g>
    <g id="key-bracketleft" transform="translate(629, 114)"><rect class="key-cap" width="50" height="50" rx="6"/><text class="key-text" x="25" y="30" text-anchor="middle">[</text></g>
    <g id="key-bracketright" transform="translate(683, 114)"><rect class="key-cap" width="50" height="50" rx="6"/><text class="key-text" x="25" y="30" text-anchor="middle">]</text></g>
    <g id="key-backslash" transform="translate(737, 114)"><rect class="key-cap" width="73" height="50" rx="6"/><text class="key-text" x="36" y="30" text-anchor="middle">\</text></g>

    <!-- Row 3 -->
    <g id="key-Caps_Lock" transform="translate(10, 168)"><rect class="key-cap" width="90" height="50" rx="6"/><text class="key-text" x="45" y="30" text-anchor="middle">Caps</text></g>
    <g id="key-a" transform="translate(104, 168)"><rect class="key-cap" width="50" height="50" rx="6"/><text class="key-text" x="25" y="30" text-anchor="middle">A</text></g>
    <g id="key-s" transform="translate(158, 168)"><rect class="key-cap" width="50" height="50" rx="6"/><text class="key-text" x="25" y="30" text-anchor="middle">S</text></g>
    <g id="key-d" transform="translate(212, 168)"><rect class="key-cap" width="50" height="50" rx="6"/><text class="key-text" x="25" y="30" text-anchor="middle">D</text></g>
    <g id="key-f" transform="translate(266, 168)"><rect class="key-cap" width="50" height="50" rx="6"/><text class="key-text" x="25" y="30" text-anchor="middle">F</text></g>
    <g id="key-g" transform="translate(320, 168)"><rect class="key-cap" width="50" height="50" rx="6"/><text class="key-text" x="25" y="30" text-anchor="middle">G</text></g>
    <g id="key-h" transform="translate(374, 168)"><rect class="key-cap" width="50" height="50" rx="6"/><text class="key-text" x="25" y="30" text-anchor="middle">H</text></g>
    <g id="key-j" transform="translate(428, 168)"><rect class="key-cap" width="50" height="50" rx="6"/><text class="key-text" x="25" y="30" text-anchor="middle">J</text></g>
    <g id="key-k" transform="translate(482, 168)"><rect class="key-cap" width="50" height="50" rx="6"/><text class="key-text" x="25" y="30" text-anchor="middle">K</text></g>
    <g id="key-l" transform="translate(536, 168)"><rect class="key-cap" width="50" height="50" rx="6"/><text class="key-text" x="25" y="30" text-anchor="middle">L</text></g>
    <g id="key-semicolon" transform="translate(590, 168)"><rect class="key-cap" width="50" height="50" rx="6"/><text class="key-text" x="25" y="30" text-anchor="middle">;</text></g>
    <g id="key-apostrophe" transform="translate(644, 168)"><rect class="key-cap" width="50" height="50" rx="6"/><text class="key-text" x="25" y="30" text-anchor="middle">'</text></g>
    <g id="key-Return" transform="translate(698, 168)"><rect class="key-cap" width="112" height="50" rx="6"/><text class="key-text" x="56" y="30" text-anchor="middle">Enter</text></g>

    <!-- Row 4 -->
    <g id="key-Shift_L" transform="translate(10, 222)"><rect class="key-cap" width="115" height="50" rx="6"/><text class="key-text" x="57" y="30" text-anchor="middle">Shift</text></g>
    <g id="key-z" transform="translate(129, 222)"><rect class="key-cap" width="50" height="50" rx="6"/><text class="key-text" x="25" y="30" text-anchor="middle">Z</text></g>
    <g id="key-x" transform="translate(183, 222)"><rect class="key-cap" width="50" height="50" rx="6"/><text class="key-text" x="25" y="30" text-anchor="middle">X</text></g>
    <g id="key-c" transform="translate(237, 222)"><rect class="key-cap" width="50" height="50" rx="6"/><text class="key-text" x="25" y="30" text-anchor="middle">C</text></g>
    <g id="key-v" transform="translate(291, 222)"><rect class="key-cap" width="50" height="50" rx="6"/><text class="key-text" x="25" y="30" text-anchor="middle">V</text></g>
    <g id="key-b" transform="translate(345, 222)"><rect class="key-cap" width="50" height="50" rx="6"/><text class="key-text" x="25" y="30" text-anchor="middle">B</text></g>
    <g id="key-n" transform="translate(399, 222)"><rect class="key-cap" width="50" height="50" rx="6"/><text class="key-text" x="25" y="30" text-anchor="middle">N</text></g>
    <g id="key-m" transform="translate(453, 222)"><rect class="key-cap" width="50" height="50" rx="6"/><text class="key-text" x="25" y="30" text-anchor="middle">M</text></g>
    <g id="key-comma" transform="translate(507, 222)"><rect class="key-cap" width="50" height="50" rx="6"/><text class="key-text" x="25" y="30" text-anchor="middle">,</text></g>
    <g id="key-period" transform="translate(561, 222)"><rect class="key-cap" width="50" height="50" rx="6"/><text class="key-text" x="25" y="30" text-anchor="middle">.</text></g>
    <g id="key-slash" transform="translate(615, 222)"><rect class="key-cap" width="50" height="50" rx="6"/><text class="key-text" x="25" y="30" text-anchor="middle">/</text></g>
    <g id="key-Shift_R" transform="translate(669, 222)"><rect class="key-cap" width="141" height="50" rx="6"/><text class="key-text" x="70" y="30" text-anchor="middle">Shift</text></g>

    <!-- Row 5 -->
    <g id="key-Control_L" transform="translate(10, 276)"><rect class="key-cap" width="65" height="50" rx="6"/><text class="key-text" x="32" y="30" text-anchor="middle">Ctrl</text></g>
    <g id="key-Super_L" transform="translate(79, 276)"><rect class="key-cap" width="60" height="50" rx="6"/><text class="key-text" x="30" y="30" text-anchor="middle">Win</text></g>
    <g id="key-Alt_L" transform="translate(143, 276)"><rect class="key-cap" width="60" height="50" rx="6"/><text class="key-text" x="30" y="30" text-anchor="middle">Alt</text></g>
    <g id="key-space" transform="translate(207, 276)"><rect class="key-cap" width="320" height="50" rx="6"/><text class="key-text" x="160" y="30" text-anchor="middle"></text></g>
    <g id="key-Alt_R" transform="translate(531, 276)"><rect class="key-cap" width="60" height="50" rx="6"/><text class="key-text" x="30" y="30" text-anchor="middle">Alt</text></g>
    <g id="key-Super_R" transform="translate(595, 276)"><rect class="key-cap" width="60" height="50" rx="6"/><text class="key-text" x="30" y="30" text-anchor="middle">Win</text></g>
    <g id="key-Menu" transform="translate(659, 276)"><rect class="key-cap" width="60" height="50" rx="6"/><text class="key-text" x="30" y="30" text-anchor="middle">Ctx</text></g>
    <g id="key-Control_R" transform="translate(723, 276)"><rect class="key-cap" width="87" height="50" rx="6"/><text class="key-text" x="43" y="30" text-anchor="middle">Ctrl</text></g>
</svg>
